<?xml version="1.0" encoding="utf-8"?>
<!-- Generator: Adobe Illustrator 27.3.1, SVG Export Plug-In . SVG Version: 6.00 Build 0)  -->
<svg version="1.1" id="Layer_1" xmlns="http://www.w3.org/2000/svg" xmlns:xlink="http://www.w3.org/1999/xlink" x="0px" y="0px"
	 viewBox="0 0 1985 220.6" style="enable-background:new 0 0 1985 220.6;" xml:space="preserve">
<style type="text/css">
	.st0{fill:#C1C1C1;}
	.st1{display:none;fill:#C1C1C1;}
	.st2{opacity:0.82;}
	.st3{fill:#72BF44;}
	.st4{opacity:8.000000e-02;fill:#FFFFFF;enable-background:new    ;}
	.st5{opacity:0.1;enable-background:new    ;}
	.st6{opacity:0.82;fill:#72BF44;}
</style>
<path class="st0" d="M1656.2,129.1c-4.6,3.4-11,2.6-14.4-2l-6.3-8.8c6.1-2.8,11.6-6.7,16.3-11.7l6.4,8
	C1661.5,119.3,1660.7,125.7,1656.2,129.1z"/>
<path class="st1" d="M1651.7,106.7c-4.7,5-10.2,8.9-16.3,11.7l0,0l-9.6-13.3l-41-56.8l-5.7-7.9l-0.9-1.2c-3.6-4.4-0.4-4,4-7.7
	c4.6-3.4,4.8-5.4,8.4-1l48.5,60.4L1651.7,106.7L1651.7,106.7z"/>
<g id="Top_Right" class="st2">
	<circle class="st3" cx="1613.1" cy="70.3" r="53"/>
	
		<ellipse transform="matrix(0.4698 -0.8828 0.8828 0.4698 793.1334 1419.7987)" class="st4" cx="1578.5" cy="49.6" rx="12.4" ry="5.2"/>
	<path class="st5" d="M1661.1,92.9c-2.4,5.2-5.6,9.8-9.4,13.8c-4.7,5-10.2,8.9-16.3,11.7c-1.7,0.8-3.4,1.5-5.2,2.1
		c-0.6,0.2-1.2,0.4-1.7,0.5c-0.3,0.1-0.6,0.2-0.8,0.2c-0.4,0.1-0.8,0.2-1.3,0.3c-0.4,0.1-0.8,0.2-1.3,0.3c-1.3,0.3-2.6,0.6-3.9,0.8
		c-1.3,0.2-2.6,0.4-4,0.5c-2.3,0.2-4.5,0.2-6.8,0.1c-1.4-0.1-2.9-0.2-4.3-0.4c-5.2-0.7-10.4-2.2-15.4-4.5c2.6-0.2,5.3-0.5,7.9-1h0.1
		c10.2-2,19.4-6.3,27.1-12.3c5.1-4,9.6-8.8,13.3-14.1c9.3-13.5,13.4-30.5,10.1-47.8c-1-5.5-2.8-10.8-5.3-15.8
		c12,8.6,19.6,21.5,21.6,35.3c0.1,0.6,0.2,1.2,0.2,1.9c0,0.3,0.1,0.6,0.1,0.9c0,0.3,0,0.6,0.1,0.9
		C1666.7,75.1,1665.1,84.3,1661.1,92.9z"/>
</g>
<path class="st0" d="M1453.7,109.9c-0.1,5.7-4.6,10.4-10.3,10.3l-14.8-0.3c1.1-6.4,1-13.1-0.4-19.8l15.1-0.4
	C1449.1,99.6,1453.8,104.1,1453.7,109.9z"/>
<path class="st1" d="M1428.7,119.8l-0.1,0l-18.2-0.4l-68.5-1.5l-6.9-0.2c-2.1,0.1-3.2-0.2-3.6-0.9c-0.8-1.1,0-3.4-0.1-6.9
	c0.1-5.7-1.4-7,4.3-7.3l72.2-2.1l20.4-0.6h0.1C1429.7,106.7,1429.8,113.4,1428.7,119.8z"/>
<path class="st0" d="M1224.7,108.8l-9.6,10.2c-4-5.2-8.9-9.7-14.8-13.2l9.1-10.7c3.8-4.2,10.3-4.7,14.5-0.8
	C1228.1,98.1,1228.5,104.6,1224.7,108.8z"/>
<path class="st1" d="M1215.1,119L1215.1,119l-12.7,13.6l-46.4,49.3l-5.6,6c-0.7,0.9-1.3,1.4-1.8,1.8c-2.1,1.3-2.9-1.3-6.5-4.2
	c-4.2-3.8-6.2-3.7-2.5-8.1l47.5-56l13.2-15.5l0,0C1206.1,109.3,1211.1,113.8,1215.1,119z"/>
<g id="Top_Right-2" class="st2">
	<circle class="st3" cx="1376.3" cy="111" r="53"/>
	
		<ellipse transform="matrix(0.9564 -0.292 0.292 0.9564 23.0023 395.7886)" class="st4" cx="1337.4" cy="120.8" rx="5.2" ry="12.4"/>
	<path class="st5" d="M1428.7,119.8c-2.6,15.4-12,29.2-26,37.2c-0.4,0.2-0.7,0.4-1.1,0.6c-0.4,0.2-0.9,0.5-1.3,0.7
		c-1.9,0.9-3.8,1.8-5.8,2.5c1.7-2,3.4-4.1,4.9-6.3l0.1-0.1c7.3-10.7,10.9-22.9,11-35c0.1-6.4-0.8-12.7-2.7-18.8
		c-4-13.5-12.6-25.8-25.1-34.3c-4.7-3.2-9.7-5.8-15-7.6c0,0,0,0-0.1,0c25.3-4.3,50.1,10.2,58.8,34.3c0.8,2.3,1.5,4.7,2,7
		C1429.7,106.7,1429.8,113.4,1428.7,119.8z"/>
</g>
<g id="Top_Right-3" class="st2">
	<circle class="st3" cx="1173" cy="151.3" r="53"/>
	
		<ellipse transform="matrix(0.4698 -0.8828 0.8828 0.4698 446.9548 1115.9135)" class="st4" cx="1152.5" cy="185.9" rx="5.2" ry="12.4"/>
	<path class="st5" d="M1225.9,154c-0.1,1.4-0.2,2.9-0.4,4.3c-0.7,5.2-2.2,10.4-4.5,15.4c-0.2-2.6-0.5-5.3-1-7.9v-0.1
		c-2.5-13.1-8.9-24.5-17.7-33.2c-4.5-4.5-9.7-8.2-15.3-11.2c-12.2-6.4-26.6-8.9-41.2-6.2c-5.5,1.1-10.8,2.9-15.8,5.3
		c8.6-12,21.5-19.6,35.3-21.6c0.6-0.1,1.2-0.2,1.8-0.2c0.3,0,0.6-0.1,0.9-0.1c0.3,0,0.6,0,0.9-0.1c8.9-0.7,18.1,0.8,26.7,4.9
		c1.6,0.8,3.2,1.6,4.7,2.5c5.9,3.5,10.9,8,14.8,13.2c3.5,4.6,6.3,9.8,8.1,15.2c0.2,0.6,0.4,1.2,0.6,1.7c0.1,0.3,0.2,0.6,0.2,0.8
		c0.1,0.4,0.2,0.8,0.3,1.3c0.1,0.4,0.2,0.8,0.3,1.3c0.3,1.3,0.6,2.6,0.8,3.9c0.2,1.3,0.4,2.6,0.5,4
		C1226,149.5,1226.1,151.7,1225.9,154z"/>
</g>
<path class="st0" d="M791.8,101.7c-3,1.3-5.8,2.8-8.5,4.6c-0.6,0.4-1.2,0.8-1.8,1.3c-0.4,0.3-0.8,0.6-1.2,0.9
	c-0.5,0.4-1,0.8-1.5,1.2c-0.5,0.4-0.9,0.8-1.3,1.2c-0.1,0.1-0.2,0.2-0.3,0.2c-0.4,0.4-0.8,0.7-1.2,1.1c-0.2,0.2-0.4,0.4-0.7,0.7
	l-8.7-12.2c-3.2-4.8-2-11.1,2.7-14.3c4.8-3.1,11.1-2,14.3,2.7L791.8,101.7z"/>
<path class="st1" d="M838,187.8c-4.8,3.2-5,5.1-8.4,0.5l-42.3-59l-11.8-16.5l0,0c0.2-0.2,0.4-0.4,0.7-0.7c0.4-0.4,0.8-0.7,1.2-1.1
	c0.1-0.1,0.2-0.2,0.3-0.2c0.4-0.4,0.9-0.8,1.3-1.2c0.5-0.4,1-0.8,1.5-1.2c0.4-0.3,0.8-0.6,1.2-0.9c0.6-0.5,1.2-0.9,1.8-1.3
	c2.7-1.8,5.5-3.3,8.5-4.6l0,0l8.8,13.7l39.6,61.6l2.2,3.4c0.5,0.6,0.8,1.2,1,1.6C844.9,184.9,842,184.9,838,187.8z"/>
<path class="st0" d="M1003.7,101.2l-0.4,14.3c-6.4-1.3-13.2-1.3-19.8-0.1l-0.4-14.2c0.1-5.7,4.6-10.4,10.3-10.3
	C999.1,90.9,1003.7,95.5,1003.7,101.2z"/>
<path class="st1" d="M1003.3,115.4l0,0.1l-0.5,18l-1.7,68.2l-0.2,8c0,1.3,0,2.1-0.2,2.7c-0.7,2.1-3.1,0.8-7.5,1
	c-5.7-0.1-7,1.4-7.2-4.3l-1.9-73.2l-0.5-20.3l0-0.2C990.2,114.1,996.9,114.2,1003.3,115.4z"/>
<g class="st2">
	<ellipse transform="matrix(0.4642 -0.8857 0.8857 0.4642 383.7465 969.5891)" class="st3" cx="993.2" cy="167.6" rx="53" ry="53"/>
	
		<ellipse transform="matrix(0.9564 -0.292 0.292 0.9564 -16.5924 301.9114)" class="st4" cx="1003.1" cy="206.5" rx="12.4" ry="5.2"/>
	<path class="st5" d="M1043,149.5c-2-1.7-4.1-3.4-6.3-4.9l-0.1-0.1c-10.4-7-22.1-10.6-33.8-11c-6.4-0.2-12.7,0.6-18.9,2.3
		c-14,3.9-26.7,12.5-35.5,25.5c-3.2,4.6-5.8,9.6-7.5,15c0,0.1,0,0.1,0,0.1c-4.3-25.3,10.2-50.1,34.3-58.8c2.7-1,5.5-1.7,8.3-2.2
		c6.7-1.2,13.4-1.2,19.8,0.1c11.6,2.3,22.3,8.5,30.1,17.6c0.4,0.5,0.8,1,1.2,1.5c0.2,0.3,0.4,0.5,0.6,0.8c0.2,0.3,0.4,0.5,0.6,0.8
		c0.2,0.3,0.4,0.5,0.6,0.8c0,0,0,0.1,0.1,0.1c0.3,0.4,0.6,0.8,0.8,1.2c0.4,0.6,0.8,1.2,1.1,1.8
		C1040.3,142.9,1041.8,146.1,1043,149.5z"/>
</g>
<g id="Top_Right-4" class="st2">
	<path class="st3" d="M865.9,150.3c0,29.3-23.7,53-53,53c-29.3,0-53-23.7-53-53c0-11.8,3.8-22.6,10.3-31.4c0,0,0,0,0,0
		c0.7-0.9,1.3-1.8,2-2.6c0.4-0.5,0.8-1,1.2-1.4c0.4-0.5,0.9-0.9,1.3-1.4c0.2-0.2,0.4-0.5,0.7-0.7c0.2-0.2,0.4-0.4,0.7-0.7
		c0.4-0.4,0.8-0.7,1.2-1.1c0.1-0.1,0.2-0.2,0.3-0.2c0.4-0.4,0.9-0.8,1.3-1.2c0.5-0.4,1-0.8,1.5-1.2c0.4-0.3,0.8-0.6,1.2-0.9
		c0.6-0.5,1.2-0.9,1.8-1.3c2.7-1.8,5.5-3.3,8.5-4.6c3.2-1.4,6.6-2.5,10.1-3.2c0.6-0.1,1.2-0.2,1.8-0.3c0.6-0.1,1.2-0.2,1.8-0.3
		c0.7-0.1,1.3-0.2,2-0.2c0.5,0,1-0.1,1.5-0.1c0.4,0,0.8,0,1.1-0.1c0.9-0.1,1.8-0.1,2.7-0.1c1.4,0,2.7,0,4.1,0.1
		c1.3,0.1,2.7,0.3,4,0.5c0.4,0.1,0.9,0.1,1.3,0.2c0.4,0.1,0.9,0.2,1.3,0.2c0.4,0.1,0.8,0.2,1.3,0.3c1.7,0.4,3.4,0.9,5,1.4
		c0.4,0.1,0.8,0.3,1.2,0.4c0.6,0.2,1.1,0.4,1.7,0.6c0.4,0.2,0.8,0.3,1.2,0.5c0,0,0,0,0,0c0.5,0.2,0.9,0.4,1.3,0.6
		C853.4,110.8,865.9,129.1,865.9,150.3z"/>
	
		<ellipse transform="matrix(0.4698 -0.8828 0.8828 0.4698 298.5779 838.7429)" class="st4" cx="847.5" cy="170.8" rx="12.4" ry="5.2"/>
	<path class="st5" d="M835.4,102.3c-2.6,0.2-5.3,0.5-7.9,1h-0.1c-10.1,1.9-19.2,6.2-26.8,12.1c-5.2,4-9.6,8.7-13.3,14
		c-9.5,13.5-13.7,30.7-10.4,48.2c1,5.5,2.7,10.8,5.3,15.8c-20.8-14.9-28.1-42.5-17.2-65.6c2-4.2,4.4-8,7.2-11.4
		c0.4-0.5,0.8-1,1.2-1.4c0.4-0.5,0.9-0.9,1.3-1.4c0.2-0.2,0.4-0.5,0.7-0.7c0.2-0.2,0.4-0.4,0.7-0.7c0.4-0.4,0.8-0.7,1.2-1.1
		c0.1-0.1,0.2-0.2,0.3-0.2c0.4-0.4,0.9-0.8,1.3-1.2c0.5-0.4,1-0.8,1.5-1.2c0.4-0.3,0.8-0.6,1.2-0.9c0.6-0.5,1.2-0.9,1.8-1.3
		c2.7-1.8,5.5-3.3,8.5-4.6c3.2-1.4,6.6-2.5,10.1-3.2c0.6-0.1,1.2-0.2,1.8-0.3c0.6-0.1,1.2-0.2,1.8-0.3c0.7-0.1,1.3-0.2,2-0.2
		c0.5,0,1-0.1,1.5-0.1c0.4,0,0.8,0,1.1-0.1c2.3-0.1,4.5-0.1,6.8,0.1c1.3,0.1,2.7,0.2,4,0.5c0.4,0.1,0.9,0.1,1.3,0.2
		c0.4,0.1,0.9,0.2,1.3,0.2c0.4,0.1,0.8,0.2,1.3,0.3c1.7,0.4,3.4,0.9,5,1.4c0.4,0.1,0.8,0.3,1.2,0.4c0.6,0.2,1.1,0.4,1.7,0.6
		c0.4,0.2,0.8,0.3,1.2,0.5c0,0,0,0,0,0C834.5,101.9,835,102.1,835.4,102.3z"/>
</g>
<path class="st0" d="M1882.2,105.5l0,10.2c-0.2,5.7-4.9,10.2-10.6,10c-5.7-0.2-10.2-4.9-10-10.6l0.5-10.4
	C1868.6,106.3,1875.4,106.6,1882.2,105.5z"/>
<path class="st1" d="M1882.4,7.8l-0.2,77.2l-0.1,20.3v0.1c-6.8,1.1-13.6,0.8-20-0.7l0-0.1l0.9-17.7l3.6-68.4l0.6-10.6l0.1-1.2
	c-0.1-5.7,2.2-3.4,7.9-3.5C1880.9,3.5,1882.3,2.1,1882.4,7.8z"/>
<path class="st0" d="M557.7,124.2l-16.1,0.7c-5.7,0-10.4-4.4-10.5-10.1c0-5.7,4.4-10.4,10.1-10.5l14.7,0.1c-0.2,1.7-0.2,3.4-0.2,5.2
	C555.7,114.6,556.4,119.5,557.7,124.2z"/>
<path class="st1" d="M649.5,120l-91.8,4.1c-1.3-4.6-2-9.5-2-14.6c0-1.8,0.1-3.5,0.2-5.2l93.9,0.5c5.7-0.3,3.5,2,3.8,7.7
	C653.7,118.4,655.2,119.7,649.5,120z"/>
<g id="Top_Right-5" class="st2">
	<path class="st3" d="M661.7,109.6c0,29.3-23.7,53-53,53c-24.2,0-44.6-16.2-51-38.4c-1.3-4.6-2-9.5-2-14.6c0-1.8,0.1-3.5,0.2-5.2
		c2.6-26.8,25.2-47.8,52.8-47.8C638,56.6,661.7,80.3,661.7,109.6z"/>
	<ellipse transform="matrix(0.9564 -0.292 0.292 0.9564 -0.8652 193.44)" class="st4" cx="647.6" cy="99.6" rx="5.2" ry="12.4"/>
	<path class="st5" d="M602.4,154.3c-29-19.7-36.5-59.1-16.8-88.1l0.1-0.1c1.5-2.2,3.2-4.3,4.9-6.3c-27.5,9.9-41.8,40.3-31.9,67.8
		c8.7,24.1,33.5,38.6,58.8,34.3C612.2,160,607.1,157.5,602.4,154.3z"/>
</g>
<g id="Top_Right-6">
	<path class="st0" d="M340,112.4l-10.4,10.7c-4.1,3.9-10.6,3.9-14.5-0.2c-3.9-4.1-3.9-10.6,0.2-14.5l11.1-10.2
		C329.9,103.7,334.5,108.5,340,112.4z"/>
	<path class="st1" d="M404.9,45.8l-65,66.6c-5.4-3.9-10.1-8.7-13.7-14.3l68.6-63.5c3.9-4.1,4-0.9,8.1,3
		C406.9,41.7,408.9,41.7,404.9,45.8z"/>
	<path class="st6" d="M423.8,69.3c0,29.3-23.7,53-53,53c-11.5,0-22.1-3.7-30.8-9.9c-5.4-3.9-10.1-8.7-13.7-14.3
		c-5.4-8.3-8.5-18.2-8.5-28.8c0-29.3,23.7-53,53-53C400.1,16.3,423.8,40,423.8,69.3z"/>
	
		<ellipse transform="matrix(0.4698 -0.8828 0.8828 0.4698 176.9315 363.9414)" class="st4" cx="391.4" cy="34.7" rx="5.2" ry="12.4"/>
	<path class="st5" d="M398,105.3c-34.4,6.5-67.6-16.1-74.2-50.5v-0.1c-0.5-2.6-0.8-5.3-1-7.9c-12.4,26.5-1,58,25.4,70.4
		c23.1,10.9,50.7,3.6,65.6-17.2C408.8,102.6,403.5,104.4,398,105.3z"/>
</g>
<g id="Top_Right-7" class="st2">
	<circle class="st3" cx="1874" cy="53" r="53"/>
	<ellipse transform="matrix(0.9564 -0.292 0.292 0.9564 77.1633 544.9291)" class="st4" cx="1864.1" cy="14" rx="12.4" ry="5.2"/>
	<path class="st5" d="M1892,103c-3.2,1.2-6.5,2-9.8,2.5c-6.8,1.1-13.6,0.8-20-0.7c-14.1-3.3-26.7-12.3-34.1-25.4
		c-0.2-0.4-0.4-0.7-0.6-1.1c-0.2-0.4-0.5-0.9-0.7-1.3c-0.9-1.9-1.8-3.8-2.5-5.8c2,1.7,4.1,3.4,6.3,4.9l0.1,0.1
		c10,6.8,21.2,10.4,32.5,10.9c6.4,0.3,12.9-0.3,19.1-2c14.4-3.7,27.5-12.5,36.5-25.7c3.2-4.7,5.7-9.8,7.6-15c0,0,0,0,0-0.1
		C1930.6,69.5,1916.1,94.3,1892,103z"/>
</g>
<g class="st2">
	<circle class="st3" cx="110.3" cy="110.3" r="53"/>
	<ellipse transform="matrix(0.4698 -0.8828 0.8828 0.4698 2.4991 155.6231)" class="st4" cx="130.8" cy="75.7" rx="5.2" ry="12.4"/>
	<path class="st5" d="M137.5,146.3c-34.4,6.5-67.6-16.1-74.2-50.5v-0.1c-0.5-2.6-0.8-5.3-1-7.9c-12.4,26.5-1,58,25.4,70.4
		c23.1,10.9,50.7,3.6,65.6-17.2C148.3,143.6,143,145.3,137.5,146.3z"/>
</g>
</svg>
