<?xml version="1.0" encoding="utf-8"?>
<!-- Generator: Adobe Illustrator 26.0.0, SVG Export Plug-In . SVG Version: 6.00 Build 0)  -->
<svg version="1.1" id="Layer_1" xmlns="http://www.w3.org/2000/svg" xmlns:xlink="http://www.w3.org/1999/xlink" x="0px" y="0px"
	 viewBox="0 0 1985 220.6" style="enable-background:new 0 0 1985 220.6;" xml:space="preserve">
<style type="text/css">
	.st0{fill:#1A1A1A;}
	.st1{fill:#72BF44;}
	.st2{opacity:8.000000e-02;fill:#FFFFFF;enable-background:new    ;}
	.st3{opacity:0.1;enable-background:new    ;}
</style>
<g id="Top_Right">
	<path class="st0" d="M1579.4,37.3c-2,2.1-2,5.4,0.1,7.4c0,0,0,0,0,0l71,69.2c2,2.1,5.3,2.1,7.4,0.1s2.1-5.3,0.1-7.4l0,0l-71.1-69.4
		C1584.8,35.2,1581.5,35.3,1579.4,37.3z"/>
	<circle class="st1" cx="1613.1" cy="70.3" r="53"/>
	
		<ellipse transform="matrix(0.4698 -0.8828 0.8828 0.4698 793.0641 1419.7836)" class="st2" cx="1578.5" cy="49.7" rx="12.4" ry="5.2"/>
	<path class="st3" d="M1649.2,43.1c6.5,34.4-16.1,67.6-50.5,74.2c0,0-0.1,0-0.1,0c-2.6,0.5-5.3,0.8-7.9,1c26.5,12.4,58,1,70.4-25.4
		c10.9-23.1,3.6-50.7-17.2-65.6C1646.4,32.3,1648.2,37.6,1649.2,43.1z"/>
</g>
<g id="Top_Right-2">
	<path class="st0" d="M1329.1,111.6c0,2.8,2.3,5.1,5.1,5.1c0.1,0,0.1,0,0.2,0l99.1-1.2c2.9,0.1,5.2-2.2,5.3-5.1
		c0.1-2.9-2.2-5.2-5.1-5.3l-99.4,1.2C1331.4,106.3,1329.1,108.7,1329.1,111.6C1329.1,111.6,1329.1,111.6,1329.1,111.6z"/>
	<circle class="st1" cx="1376.3" cy="111" r="53"/>
	
		<ellipse transform="matrix(0.9564 -0.292 0.292 0.9564 23.0181 395.8251)" class="st2" cx="1337.4" cy="120.8" rx="5.2" ry="12.4"/>
	<path class="st3" d="M1382.6,66.3c29,19.7,36.5,59.1,16.8,88.1c0,0-0.1,0.1-0.1,0.1c-1.5,2.2-3.2,4.3-4.9,6.3
		c27.5-9.9,41.8-40.3,31.9-67.8c-8.7-24.1-33.5-38.6-58.8-34.3C1372.9,60.5,1377.9,63.1,1382.6,66.3z"/>
</g>
<g id="Top_Right-3">
	<path class="st0" d="M1140.1,185.1c2.1,2,5.4,2,7.4-0.1c0,0,0,0,0,0l69.2-71c2.1-2,2.1-5.3,0.1-7.4s-5.3-2.1-7.4-0.1l-69.4,71.1
		C1138,179.7,1138,183,1140.1,185.1z"/>
	<circle class="st1" cx="1173" cy="151.3" r="53"/>
	
		<ellipse transform="matrix(0.4698 -0.8828 0.8828 0.4698 446.9412 1115.8794)" class="st2" cx="1152.4" cy="185.9" rx="5.2" ry="12.4"/>
	<path class="st3" d="M1145.8,115.2c34.4-6.5,67.6,16.1,74.2,50.5c0,0,0,0.1,0,0.1c0.5,2.6,0.8,5.3,1,7.9c12.4-26.5,1-58-25.4-70.4
		c-23.1-10.9-50.7-3.6-65.6,17.2C1135,118.1,1140.3,116.3,1145.8,115.2z"/>
</g>
<g>
	<path class="st0" d="M993.8,214.7c2.8,0,5.1-2.3,5.1-5.1c0-0.1,0-0.1,0-0.2l-1.2-99.1c0.1-2.9-2.2-5.2-5.1-5.3s-5.2,2.2-5.3,5.1
		l0,0l1.2,99.4c0,2.8,2.2,5.2,5.1,5.2C993.6,214.7,993.7,214.7,993.8,214.7z"/>
	
		<ellipse transform="matrix(0.3163 -0.9487 0.9487 0.3163 520.0972 1056.8611)" class="st1" cx="993.2" cy="167.6" rx="53" ry="53"/>
	
		<ellipse transform="matrix(0.9564 -0.292 0.292 0.9564 -16.5647 301.9482)" class="st2" cx="1003.1" cy="206.5" rx="12.4" ry="5.2"/>
	<path class="st3" d="M948.5,161.3c19.7-29,59.1-36.5,88.1-16.8c0,0,0.1,0.1,0.1,0.1c2.2,1.5,4.3,3.2,6.3,4.9
		c-9.9-27.5-40.3-41.8-67.8-31.9c-24.1,8.7-38.6,33.5-34.3,58.8C942.7,171,945.3,165.9,948.5,161.3z"/>
</g>
<g id="Top_Right-4">
	<path class="st0" d="M846.7,183.2c2-2.1,2-5.4-0.1-7.4c0,0,0,0,0,0l-71-69.2c-2-2.1-5.3-2.1-7.4-0.1c-2.1,2-2.1,5.3-0.1,7.4l0,0
		l71.1,69.4C841.3,185.3,844.6,185.3,846.7,183.2z"/>
	<circle class="st1" cx="812.9" cy="150.3" r="53"/>
	
		<ellipse transform="matrix(0.4698 -0.8828 0.8828 0.4698 298.5866 838.743)" class="st2" cx="847.5" cy="170.8" rx="12.4" ry="5.2"/>
	<path class="st3" d="M776.9,177.5c-6.5-34.4,16.1-67.6,50.5-74.2c0,0,0.1,0,0.1,0c2.6-0.5,5.3-0.8,7.9-1c-26.5-12.4-58-1-70.4,25.4
		c-10.9,23.1-3.6,50.7,17.2,65.6C779.6,188.3,777.9,183,776.9,177.5z"/>
</g>
<g id="Top_Right-5">
	<path class="st0" d="M655.8,109c0-2.8-2.3-5.1-5.1-5.1c-0.1,0-0.1,0-0.2,0l-99.1,1.2c-2.9-0.1-5.2,2.2-5.3,5.1
		c-0.1,2.9,2.2,5.2,5.1,5.3l99.4-1.2c2.9,0,5.2-2.3,5.2-5.2C655.8,109.1,655.8,109,655.8,109z"/>
	<circle class="st1" cx="608.7" cy="109.6" r="53"/>
	<ellipse transform="matrix(0.9564 -0.292 0.292 0.9564 -0.8623 193.4602)" class="st2" cx="647.6" cy="99.6" rx="5.2" ry="12.4"/>
	<path class="st3" d="M602.4,154.3c-29-19.7-36.5-59.1-16.8-88.1c0,0,0.1-0.1,0.1-0.1c1.5-2.2,3.2-4.3,4.9-6.3
		c-27.5,9.9-41.8,40.3-31.9,67.8c8.7,24.1,33.5,38.6,58.8,34.3C612.2,160,607.1,157.5,602.4,154.3z"/>
</g>
<g id="Top_Right-6">
	<path class="st0" d="M403.8,35.5c-2.1-2-5.4-2-7.4,0.1c0,0,0,0,0,0l-69.2,71c-2.1,2-2.1,5.3-0.1,7.4s5.3,2.1,7.4,0.1l0,0L403.9,43
		C405.9,40.9,405.8,37.6,403.8,35.5z"/>
	<circle class="st1" cx="370.8" cy="69.3" r="53"/>
	
		<ellipse transform="matrix(0.4698 -0.8828 0.8828 0.4698 176.9262 363.9049)" class="st2" cx="391.4" cy="34.7" rx="5.2" ry="12.4"/>
	<path class="st3" d="M398,105.3c-34.4,6.5-67.6-16.1-74.2-50.5c0,0,0-0.1,0-0.1c-0.5-2.6-0.8-5.3-1-7.9c-12.4,26.5-1,58,25.4,70.4
		c23.1,10.9,50.7,3.6,65.6-17.2C408.8,102.6,403.5,104.4,398,105.3z"/>
</g>
<g id="Top_Right-7">
	<path class="st0" d="M1873.4,5.8c-2.8,0-5.1,2.3-5.1,5.1c0,0.1,0,0.1,0,0.2l1.2,99.1c-0.1,2.9,2.2,5.2,5.1,5.3
		c2.9,0.1,5.2-2.2,5.3-5.1l-1.2-99.4C1878.6,8.1,1876.3,5.8,1873.4,5.8z"/>
	<circle class="st1" cx="1874" cy="53" r="53"/>
	<ellipse transform="matrix(0.9564 -0.292 0.292 0.9564 77.1939 544.993)" class="st2" cx="1864.1" cy="13.9" rx="12.4" ry="5.2"/>
	<path class="st3" d="M1918.7,59.3c-19.7,29-59.1,36.5-88.1,16.8c0,0-0.1-0.1-0.1-0.1c-2.2-1.5-4.3-3.2-6.3-4.9
		c9.9,27.5,40.3,41.8,67.8,31.9c24.1-8.7,38.6-33.5,34.3-58.8C1924.4,49.5,1921.9,54.6,1918.7,59.3z"/>
</g>
<g>
	<circle class="st1" cx="110.3" cy="110.3" r="53"/>
	<ellipse transform="matrix(0.4698 -0.8828 0.8828 0.4698 2.5246 155.6375)" class="st2" cx="130.8" cy="75.7" rx="5.2" ry="12.4"/>
	<path class="st3" d="M137.5,146.3c-34.4,6.5-67.6-16.1-74.2-50.5c0,0,0-0.1,0-0.1c-0.5-2.6-0.8-5.3-1-7.9
		c-12.4,26.5-1,58,25.4,70.4c23.1,10.9,50.7,3.6,65.6-17.2C148.3,143.6,143,145.3,137.5,146.3z"/>
</g>
</svg>
